<svg width="24" height="24" viewBox="0 0 24 24" fill="none" xmlns="http://www.w3.org/2000/svg">
<path fill-rule="evenodd" clip-rule="evenodd" d="M7.16146 3H16.8385C17.3657 2.99998 17.8205 2.99997 18.195 3.03057C18.5904 3.06287 18.9836 3.13419 19.362 3.32698C19.9265 3.6146 20.3854 4.07354 20.673 4.63803C20.8658 5.01641 20.9371 5.40963 20.9694 5.80497C21 6.17954 21 6.6343 21 7.16144V16.8386C21 17.3657 21 17.8205 20.9694 18.195C20.9371 18.5904 20.8658 18.9836 20.673 19.362C20.3854 19.9265 19.9265 20.3854 19.362 20.673C18.9836 20.8658 18.5904 20.9371 18.195 20.9694C17.8205 21 17.3657 21 16.8386 21H7.16144C6.6343 21 6.17954 21 5.80497 20.9694C5.40963 20.9371 5.01641 20.8658 4.63803 20.673C4.07354 20.3854 3.6146 19.9265 3.32698 19.362C3.13419 18.9836 3.06287 18.5904 3.03057 18.195C2.99997 17.8205 2.99998 17.3657 3 16.8385V7.16146C2.99998 6.63431 2.99997 6.17955 3.03057 5.80497C3.06287 5.40963 3.13419 5.01641 3.32698 4.63803C3.6146 4.07354 4.07354 3.6146 4.63803 3.32698C5.01641 3.13419 5.40963 3.06287 5.80497 3.03057C6.17955 2.99997 6.63431 2.99998 7.16146 3ZM5 11V16.8C5 17.3766 5.00078 17.7488 5.02393 18.0322C5.04612 18.3038 5.0838 18.4045 5.109 18.454C5.20487 18.6421 5.35785 18.7951 5.54601 18.891C5.59546 18.9162 5.69617 18.9539 5.96784 18.9761C6.25117 18.9992 6.62345 19 7.2 19H16.8C17.3766 19 17.7488 18.9992 18.0322 18.9761C18.3038 18.9539 18.4045 18.9162 18.454 18.891C18.6422 18.7951 18.7951 18.6422 18.891 18.454C18.9162 18.4045 18.9539 18.3038 18.9761 18.0322C18.9992 17.7488 19 17.3766 19 16.8V11H5ZM19 9H5V7.2C5 6.62345 5.00078 6.25117 5.02393 5.96784C5.04612 5.69617 5.0838 5.59546 5.109 5.54601C5.20487 5.35785 5.35785 5.20487 5.54601 5.109C5.59546 5.0838 5.69617 5.04612 5.96784 5.02393C6.25117 5.00078 6.62345 5 7.2 5H16.8C17.3766 5 17.7488 5.00078 18.0322 5.02393C18.3038 5.04612 18.4045 5.0838 18.454 5.109C18.6422 5.20487 18.7951 5.35785 18.891 5.54601C18.9162 5.59546 18.9539 5.69617 18.9761 5.96784C18.9992 6.25117 19 6.62345 19 7.2V9Z" fill="white" style="fill:white;fill-opacity:1;"/>
</svg>
