<svg width="24" height="24" viewBox="0 0 24 24" fill="none" xmlns="http://www.w3.org/2000/svg">
<g clip-path="url(#clip0_3036_4546)">
<path d="M12 0C20.2843 0 24 3.71573 24 12C24 20.2843 20.2843 24 12 24C3.71573 24 0 20.2843 0 12C1.87142e-07 3.71573 3.71573 1.8716e-07 12 0ZM12.001 11.2979C9.89847 11.2979 8.19351 13.002 8.19336 15.1045C8.19359 17.2069 9.89852 18.912 12.001 18.9121C14.1033 18.9119 15.8074 17.2068 15.8076 15.1045C15.8075 13.0021 14.1034 11.2981 12.001 11.2979ZM12.001 13.0264C13.1488 13.0266 14.079 13.9567 14.0791 15.1045C14.0789 16.2523 13.1487 17.1834 12.001 17.1836C10.8531 17.1835 9.9221 16.2523 9.92188 15.1045C9.92202 13.9566 10.8531 13.0264 12.001 13.0264ZM9.74512 5.08887L9.16016 6.85938H11.0137V10.5898H13.084V5.08887H9.74512Z" fill="#101111" style="fill:#101111;fill:color(display-p3 0.0627 0.0667 0.0667);fill-opacity:1;"/>
</g>
<defs>
<clipPath id="clip0_3036_4546">
<rect width="24" height="24" fill="white" style="fill:white;fill-opacity:1;"/>
</clipPath>
</defs>
</svg>
